<?xml version="1.0" encoding="UTF-8" standalone="no"?>
<!DOCTYPE svg PUBLIC "-//W3C//DTD SVG 1.1//EN" "http://www.w3.org/Graphics/SVG/1.1/DTD/svg11.dtd">
<svg width="473px" height="119px" version="1.1" xmlns="http://www.w3.org/2000/svg" xmlns:xlink="http://www.w3.org/1999/xlink" xml:space="preserve" xmlns:serif="http://www.serif.com/" style="fill-rule:evenodd;clip-rule:evenodd;stroke-linecap:square;stroke-miterlimit:1.5;">
    <g transform="matrix(2.09663,-1.34451e-16,1.34451e-16,2.09663,-3771.06,-4232.32)">
        <path d="M1835.84,2041.82C1835.84,2044.12 1835.44,2046.08 1834.64,2047.69C1833.84,2049.31 1832.75,2050.62 1831.37,2051.62C1829.99,2052.62 1828.37,2053.35 1826.52,2053.82C1824.67,2054.28 1822.68,2054.52 1820.54,2054.52L1820.54,2062.47L1809.89,2062.47L1809.89,2029.12L1820.54,2029.12C1822.68,2029.12 1824.67,2029.35 1826.52,2029.82C1828.37,2030.28 1829.99,2031.02 1831.37,2032.02C1832.75,2033.02 1833.84,2034.33 1834.64,2035.94C1835.44,2037.56 1835.84,2039.52 1835.84,2041.82ZM1820.54,2045.52L1820.99,2045.52C1822.39,2045.52 1823.4,2045.19 1824.02,2044.54C1824.64,2043.89 1824.94,2042.98 1824.94,2041.82C1824.94,2040.65 1824.64,2039.74 1824.02,2039.09C1823.4,2038.44 1822.39,2038.12 1820.99,2038.12L1820.54,2038.12L1820.54,2045.52Z" style="fill:rgb(35,31,32);fill-rule:nonzero;"/>
        <path d="M1844.24,2029.12L1852.24,2029.12L1864.89,2062.47L1854.39,2062.47L1853.29,2059.47L1843.19,2059.47L1842.09,2062.47L1831.59,2062.47L1844.24,2029.12ZM1850.49,2052.12L1848.24,2046.27L1845.99,2052.12L1850.49,2052.12Z" style="fill:rgb(35,31,32);fill-rule:nonzero;"/>
        <path d="M1916.29,2063.32C1914.19,2063.32 1912.29,2063.05 1910.59,2062.52C1908.89,2061.98 1907.44,2061.18 1906.24,2060.12C1905.04,2059.05 1904.12,2057.7 1903.47,2056.07C1902.82,2054.43 1902.49,2052.52 1902.49,2050.32L1902.49,2029.12L1913.14,2029.12L1913.14,2049.87C1913.14,2051.03 1913.39,2051.93 1913.87,2052.54C1914.35,2053.16 1915.16,2053.47 1916.29,2053.47C1917.43,2053.47 1918.24,2053.16 1918.72,2052.54C1919.2,2051.93 1919.44,2051.03 1919.44,2049.87L1919.44,2029.12L1930.14,2029.12L1930.14,2050.32C1930.14,2052.52 1929.82,2054.43 1929.17,2056.07C1928.52,2057.7 1927.59,2059.05 1926.37,2060.12C1925.15,2061.18 1923.69,2061.98 1921.99,2062.52C1920.29,2063.05 1918.39,2063.32 1916.29,2063.32Z" style="fill:rgb(35,31,32);fill-rule:nonzero;"/>
        <path d="M1933.49,2029.12L1946.54,2029.12C1948.21,2029.12 1949.74,2029.31 1951.12,2029.69C1952.5,2030.08 1953.69,2030.64 1954.67,2031.39C1955.65,2032.14 1956.42,2033.08 1956.97,2034.19C1957.52,2035.31 1957.79,2036.62 1957.79,2038.12C1957.79,2039.18 1957.66,2040.09 1957.39,2040.84C1957.13,2041.59 1956.84,2042.22 1956.54,2042.72C1956.18,2043.32 1955.76,2043.82 1955.29,2044.22C1956.03,2044.68 1956.69,2045.28 1957.29,2046.02C1957.79,2046.65 1958.25,2047.45 1958.67,2048.42C1959.09,2049.38 1959.29,2050.57 1959.29,2051.97C1959.29,2053.57 1959.01,2055.02 1958.44,2056.32C1957.88,2057.62 1957.07,2058.73 1956.02,2059.64C1954.97,2060.56 1953.69,2061.26 1952.17,2061.74C1950.65,2062.23 1948.96,2062.47 1947.09,2062.47L1933.49,2062.47L1933.49,2029.12ZM1944.99,2054.62C1947.53,2054.62 1948.79,2053.65 1948.79,2051.72C1948.79,2049.78 1947.53,2048.82 1944.99,2048.82L1943.79,2048.82L1943.79,2054.62L1944.99,2054.62ZM1947.49,2039.27C1947.49,2037.73 1946.66,2036.97 1944.99,2036.97L1943.79,2036.97L1943.79,2041.57L1944.99,2041.57C1946.66,2041.57 1947.49,2040.8 1947.49,2039.27Z" style="fill:rgb(35,31,32);fill-rule:nonzero;"/>
        <path d="M1961.54,2029.12L1981.19,2029.12L1981.19,2037.87L1972.19,2037.87L1972.19,2041.57L1981.04,2041.57L1981.04,2049.87L1972.19,2049.87L1972.19,2053.72L1981.54,2053.72L1981.54,2062.47L1961.54,2062.47L1961.54,2029.12Z" style="fill:rgb(35,31,32);fill-rule:nonzero;"/>
        <path d="M1984.54,2029.12L1996.04,2029.12C1998.18,2029.12 2000.15,2029.4 2001.97,2029.97C2003.79,2030.53 2005.36,2031.37 2006.69,2032.47C2008.03,2033.57 2009.07,2034.93 2009.82,2036.54C2010.57,2038.16 2010.94,2040.02 2010.94,2042.12C2010.94,2043.78 2010.71,2045.2 2010.24,2046.37C2009.78,2047.53 2009.26,2048.5 2008.69,2049.27C2008.03,2050.13 2007.28,2050.87 2006.44,2051.47L2012.69,2062.47L2000.19,2062.47L1995.19,2054.02L1995.19,2062.47L1984.54,2062.47L1984.54,2029.12ZM1995.19,2045.52L1995.74,2045.52C1997.01,2045.52 1998.09,2045.23 1998.97,2044.67C1999.85,2044.1 2000.29,2043.15 2000.29,2041.82C2000.29,2040.48 1999.85,2039.53 1998.97,2038.97C1998.09,2038.4 1997.01,2038.12 1995.74,2038.12L1995.19,2038.12L1995.19,2045.52Z" style="fill:rgb(35,31,32);fill-rule:nonzero;"/>
    </g>
    <g transform="matrix(0.127784,0,0,0.128925,83.9925,-109.317)">
        <path d="M472.441,1181.1L472.441,1417.32L708.661,1559.06L944.882,1417.32L944.882,1181.1L708.661,1039.37L472.441,1181.1Z" style="fill:none;stroke:black;stroke-width:99.55px;"/>
    </g>
    <g transform="matrix(0.127784,0,0,0.128925,-18.6373,-109.263)">
        <path d="M1417.32,1251.97L1511.81,1299.21L1612.2,1249.02" style="fill:none;stroke:black;stroke-width:24.89px;"/>
    </g>
    <g transform="matrix(0.127784,0,0,0.128925,-18.6373,-109.263)">
        <path d="M1511.81,1299.21L1511.81,1392.45" style="fill:none;stroke:black;stroke-width:24.89px;stroke-linejoin:round;"/>
    </g>
    <g transform="matrix(0.124236,-0.00520124,-0.00524769,0.121234,-5.00583,-85.6774)">
        <path d="M1648.15,1483.11L1700.42,1559.06" style="fill:none;stroke:black;stroke-width:117.8px;stroke-linejoin:round;"/>
    </g>
</svg>
